<?xml version="1.0" encoding="UTF-8"?>
<!DOCTYPE svg PUBLIC "-//W3C//DTD SVG 1.1//EN" "http://www.w3.org/Graphics/SVG/1.1/DTD/svg11.dtd">
<!-- Creator: CorelDRAW 2017 -->
<svg xmlns="http://www.w3.org/2000/svg" xml:space="preserve" width="18.288mm" height="12.8692mm" version="1.1" style="shape-rendering:geometricPrecision; text-rendering:geometricPrecision; image-rendering:optimizeQuality; fill-rule:evenodd; clip-rule:evenodd"
viewBox="0 0 1829 1287"
 xmlns:xlink="http://www.w3.org/1999/xlink">
 <defs>
  <style type="text/css">
   <![CDATA[
    .fil2 {fill:#35485D}
    .fil0 {fill:#36D1A5}
    .fil1 {fill:#41B883}
    .fil3 {fill:#57D4B1}
    .fil7 {fill:gray;fill-rule:nonzero}
    .fil6 {fill:#FEFEFE;fill-opacity:0.200000}
    .fil5 {fill:url(#id0)}
    .fil4 {fill:url(#id1)}
   ]]>
  </style>
  <linearGradient id="id0" gradientUnits="userSpaceOnUse" x1="942" y1="505" x2="1312" y2="505">
   <stop offset="0" style="stop-opacity:1; stop-color:#EB7F3F"/>
   <stop offset="1" style="stop-opacity:1; stop-color:#EB536D"/>
  </linearGradient>
  <linearGradient id="id1" gradientUnits="userSpaceOnUse" x1="453" y1="505" x2="823" y2="505">
   <stop offset="0" style="stop-opacity:1; stop-color:#EB7F3F"/>
   <stop offset="1" style="stop-opacity:1; stop-color:#EB526E"/>
  </linearGradient>
 </defs>
 <g id="Capa_x0020_1">
  <metadata id="CorelCorpID_0Corel-Layer"/>
  <g id="_1616464815280">
   <rect class="fil0" transform="matrix(0.0233906 -0.00929786 0.00929786 0.0233906 1229.77 177.103)" width="2001" height="9663"/>
   <rect class="fil0" transform="matrix(0.0239588 0.00771663 -0.00771663 0.0239588 470.238 154.34)" width="2001" height="9663"/>
   <g>
    <g>
     <path class="fil1" d="M1182 95l-150 264c-26,45 -51,88 -77,131 -16,26 -62,114 -76,128l-303 -524 -204 0c5,21 226,394 251,438l221 382c8,14 26,42 29,57l10 0c5,-19 112,-198 125,-220l316 -545c11,-19 20,-35 32,-54 8,-14 26,-42 29,-57l-204 0z"/>
     <path class="fil2" d="M1182 95l-189 0c-15,32 -36,64 -53,96 -12,23 -51,81 -56,101l-10 0c-5,-20 -99,-173 -111,-198l-186 0 303 524c14,-14 61,-102 76,-128 25,-43 50,-87 77,-131l150 -264z"/>
    </g>
    <path id="path2830" class="fil3" d="M1172 335c-80,1 -157,25 -236,35 -33,4 -67,5 -100,1 -44,-5 -86,-19 -130,-25 -39,-5 -79,-11 -118,-11 -69,0 -135,21 -202,32 0,19 -4,44 6,58 10,14 28,27 32,46 11,45 26,90 46,133 10,21 27,35 47,45 48,24 105,27 158,20 75,-11 116,-67 147,-131 12,-26 13,-56 28,-80 9,-14 30,-8 45,-8 23,0 28,25 33,41 17,59 44,121 100,152 82,46 212,37 266,-46 21,-32 27,-72 37,-109 6,-22 12,-49 35,-61 9,-5 3,-25 4,-36 1,-13 4,-24 -14,-26 -31,-4 -62,-17 -94,-22 -31,-4 -60,-10 -92,-10l0 0zm-530 21c23,0 45,2 68,6 132,28 134,81 80,192 -44,90 -136,113 -228,91 -43,-10 -72,-39 -85,-80 -14,-42 -25,-88 -23,-132 3,-60 72,-68 121,-74 22,-3 45,-4 68,-5l0 0zm481 0c23,0 46,2 68,5 49,5 117,14 121,74 2,45 -8,90 -23,132 -14,40 -43,70 -85,80 -92,22 -184,-1 -228,-91 -54,-111 -52,-165 80,-192 22,-5 45,-6 68,-6l0 0z"/>
    <path id="path2832" class="fil4" d="M574 361c45,-5 91,-8 136,2 132,28 134,81 80,192 -44,90 -136,113 -228,91 -43,-10 -72,-39 -85,-80 -14,-42 -25,-87 -23,-132 3,-60 72,-68 121,-73l0 0 0 0z"/>
    <path id="path2832-1" class="fil5" d="M1191 361c-45,-5 -91,-8 -136,2 -132,28 -134,81 -80,192 44,90 136,113 228,91 43,-10 72,-39 85,-80 14,-42 25,-87 23,-132 -3,-60 -72,-68 -121,-73l0 0 0 0z"/>
    <path class="fil6" d="M1028 370c-8,32 -16,63 -25,95l-21 83c0,2 -1,4 -2,6 0,1 -1,2 -1,3l-1 2c0,0 0,0 0,0l0 1c1,1 9,15 10,17 9,15 23,31 36,41 4,3 3,2 4,4l0 0c0,-7 53,-207 59,-231 3,-10 7,-23 8,-33 -24,1 -47,6 -69,12z"/>
    <path class="fil6" d="M1076 642c0,-5 60,-223 67,-247 2,-6 3,-12 5,-18 1,-5 3,-14 5,-17 -1,-3 2,-2 -4,-2 -1,0 -3,0 -4,0l-27 -1 -74 273c6,2 19,10 28,13 4,1 2,1 4,0z"/>
    <path class="fil6" d="M524 371c-8,33 -16,65 -25,98l-21 85c0,2 -1,4 -2,6 0,1 -1,2 -1,3l-1 2c0,0 0,0 0,0l0 1c1,1 9,15 10,18 9,15 23,32 36,43 4,3 3,2 4,5l0 0c0,-7 53,-213 59,-238 3,-11 7,-24 8,-34 -24,1 -47,6 -69,12z"/>
    <path class="fil6" d="M572 651c0,-5 60,-230 67,-255 2,-6 3,-12 5,-18 1,-5 3,-14 5,-18 -1,-3 2,-2 -4,-2 -1,0 -3,0 -4,0l-27 -1 -74 282c6,2 19,10 28,13 4,1 2,1 4,0z"/>
   </g>
  </g>
  <path class="fil7" d="M560 1111c1,-1 2,-2 3,-2 1,0 3,0 4,0 1,0 2,1 3,2 1,1 1,2 1,3 -1,2 -4,6 -7,13 -4,6 -8,13 -13,21 -5,8 -10,16 -16,24 -6,8 -11,16 -17,23 -5,7 -11,13 -15,17 -5,5 -9,7 -12,7 -6,0 -8,-6 -8,-19 -7,7 -14,12 -23,16 -8,3 -17,4 -26,1 -11,-3 -19,-10 -24,-19 -5,-10 -7,-20 -7,-32 0,-12 3,-24 8,-37 5,-13 11,-24 19,-33 8,-10 16,-17 26,-21 10,-5 20,-5 30,-1 8,3 14,9 18,15 1,-2 1,-4 2,-6 0,-2 1,-4 2,-6 0,-2 2,-2 4,-2 2,0 5,1 8,3 3,2 5,3 8,6 2,2 4,4 4,6 0,1 -1,5 -3,11 -2,6 -4,13 -7,21 -3,8 -6,17 -9,26 -3,9 -6,18 -9,26 -2,8 -4,14 -6,20 -1,5 -2,8 -1,8 2,1 6,-2 11,-9 6,-7 12,-16 18,-26 7,-10 13,-20 20,-31 7,-10 12,-19 15,-25zm-124 88c6,3 12,4 18,0 6,-3 12,-8 17,-15 5,-7 9,-15 13,-24 4,-9 6,-18 7,-27 1,-9 1,-17 -1,-24 -2,-7 -6,-12 -11,-15 -6,-3 -11,-3 -18,0 -6,3 -12,8 -17,15 -5,7 -10,14 -14,23 -4,9 -6,18 -8,26 -1,8 -1,16 1,23 2,7 6,12 12,15zm305 -88c1,-1 2,-2 3,-2 1,0 3,0 4,0 1,0 2,1 3,2 1,1 1,2 1,3 -6,14 -12,26 -18,34 -6,9 -12,15 -18,19 -6,4 -11,7 -17,8 -5,1 -10,1 -15,0 -5,10 -11,18 -16,24 -5,6 -11,10 -16,13 -5,3 -10,5 -14,6 -4,1 -8,1 -12,1 -11,0 -19,-5 -24,-14 -5,6 -10,10 -15,11 -5,2 -9,2 -14,2 -9,0 -16,-3 -21,-10 -5,-6 -9,-16 -10,-28 -1,-12 0,-28 4,-46 4,-18 10,-39 19,-63 0,-2 2,-2 4,-1 3,1 5,2 8,4 3,2 5,4 8,6 3,2 4,4 4,6 -31,73 -36,111 -15,116 8,2 15,-5 22,-18 -1,-8 0,-17 0,-28 1,-10 3,-22 7,-35 2,0 4,0 7,2 3,1 6,3 9,6 3,2 6,5 9,8 3,3 4,5 5,7 -3,10 -6,18 -9,25 -3,7 -6,14 -9,19 1,8 5,13 13,14 5,1 11,-1 18,-7 7,-6 14,-16 20,-30 -5,-6 -9,-13 -10,-22 -2,-8 -1,-17 1,-26 2,-9 6,-17 12,-24 6,-7 13,-13 23,-17 1,0 3,0 6,1 3,1 5,2 7,4 2,1 4,3 6,5 2,2 3,3 3,5 -3,16 -7,30 -11,42 -4,12 -8,23 -12,32 5,1 10,0 14,-3 5,-3 9,-6 13,-11 4,-5 8,-11 12,-18 4,-7 7,-14 11,-22zm-67 36c2,-5 4,-11 6,-18 2,-6 4,-13 5,-20 -6,5 -10,11 -11,18 -1,7 -1,13 0,19zm183 -36c1,-1 2,-2 4,-3 2,0 3,-1 5,0 2,0 3,1 4,2 1,1 1,2 0,3 -9,18 -19,34 -30,48 -11,14 -23,26 -34,35 -12,9 -23,16 -33,19 -11,4 -20,5 -27,3 -10,-2 -17,-8 -22,-18 -5,-9 -7,-20 -7,-32 0,-12 2,-25 7,-38 4,-13 10,-24 18,-34 8,-10 17,-17 28,-22 11,-5 23,-5 35,-1 7,2 13,7 16,13 3,7 5,14 4,22 0,8 -3,17 -7,26 -4,9 -10,17 -18,25 -7,7 -16,14 -27,18 -10,5 -22,7 -35,7 2,9 6,15 13,16 6,2 13,1 22,-3 9,-3 18,-9 27,-17 10,-8 19,-17 29,-29 10,-12 19,-25 27,-40zm-60 -14c-6,-3 -12,-3 -18,0 -6,3 -12,9 -18,16 -5,7 -10,16 -14,25 -4,10 -7,19 -8,27 12,2 23,0 33,-6 9,-6 16,-13 22,-22 5,-8 8,-17 9,-25 1,-8 -1,-13 -5,-15zm163 13c1,-1 2,-2 3,-3 1,0 3,-1 4,0 1,0 2,1 3,2 1,1 1,2 1,3 -5,12 -12,21 -20,27 -8,6 -16,11 -25,14 3,4 4,9 5,14 1,5 1,10 -1,15 -2,9 -7,16 -13,22 -6,6 -13,10 -21,12 -7,2 -15,3 -23,3 -8,-1 -14,-3 -20,-6 -6,-3 -10,-8 -12,-13 -3,-6 -3,-13 0,-20 2,-5 5,-10 8,-13 4,-3 8,-6 12,-8 5,-2 10,-4 15,-5 5,-1 11,-2 17,-4 -6,-6 -13,-11 -20,-17 -7,-6 -14,-11 -19,-17 -5,-6 -8,-12 -10,-18 -1,-6 1,-13 6,-20 3,-4 7,-7 11,-9 4,-2 8,-2 11,-1 3,1 5,3 7,7 2,4 1,9 0,15 -1,3 -2,7 -4,10 -2,3 -3,6 -5,9 7,5 14,11 23,17 9,6 17,13 23,20 8,-3 16,-6 23,-11 7,-5 13,-12 18,-22zm-99 -24c-2,3 -1,7 3,12 1,-1 1,-2 2,-4 0,-1 1,-2 1,-3 2,-5 3,-8 1,-10 -2,-2 -4,0 -7,4zm48 95c2,-7 0,-14 -6,-22 -11,2 -21,5 -28,8 -7,3 -13,8 -16,17 -2,5 0,10 3,13 4,4 9,6 15,6 6,0 12,-1 18,-4 6,-3 11,-10 13,-18zm170 -70c0,-1 1,-2 3,-2 1,0 3,0 4,0 1,0 2,1 3,2 1,1 1,2 1,3 -5,12 -10,21 -15,29 -5,8 -10,14 -15,19 -5,5 -9,8 -14,11 -5,2 -9,3 -13,4 -3,7 -7,14 -12,20 -5,6 -10,11 -15,15 -6,4 -12,7 -18,8 -6,1 -13,1 -20,-1 -11,-3 -19,-10 -24,-19 -5,-10 -7,-20 -7,-32 0,-12 3,-24 8,-37 5,-13 11,-24 19,-33 8,-10 16,-17 26,-21 10,-5 20,-5 30,-1 7,3 13,7 17,14 4,6 7,14 8,22 1,8 1,17 0,27 -1,10 -3,19 -7,28 4,-1 7,-4 11,-7 4,-3 7,-7 11,-12 3,-5 6,-10 10,-15 3,-6 6,-11 8,-17zm-52 13c-6,6 -9,12 -10,19 -1,7 0,12 3,16 2,-6 4,-12 5,-18 1,-6 2,-12 1,-17zm-56 75c4,2 8,3 12,2 4,-1 8,-2 11,-5 4,-3 7,-6 11,-11 3,-4 7,-9 9,-15 -4,-3 -8,-7 -10,-12 -2,-5 -4,-11 -4,-18 0,-7 1,-14 4,-21 3,-7 7,-15 13,-22 -2,-1 -3,-2 -4,-3 -6,-3 -11,-3 -18,0 -6,3 -12,8 -17,15 -5,7 -10,14 -14,23 -4,9 -6,18 -8,26 -1,8 -1,16 1,23 2,7 6,12 12,15zm289 -88c1,-1 2,-2 3,-2 1,0 3,0 4,0 1,0 2,1 3,2 1,1 1,2 1,3 -1,2 -4,6 -7,13 -4,6 -8,13 -13,21 -5,8 -10,16 -16,24 -6,8 -11,16 -17,23 -5,7 -11,13 -15,17 -5,5 -9,7 -12,7 -5,0 -8,-2 -11,-5 -2,-3 -3,-9 -3,-17 1,-8 3,-19 7,-33 4,-14 10,-31 17,-52 3,-7 2,-11 -2,-11 -4,0 -10,5 -18,13 -7,8 -16,20 -25,36 -9,16 -17,35 -23,58 -1,1 -2,2 -4,3 -2,1 -5,3 -7,4 -2,1 -5,2 -7,3 -3,1 -4,1 -5,1 0,-3 1,-6 2,-10 1,-4 3,-9 4,-15 1,-6 3,-11 5,-18 2,-6 4,-12 5,-18 4,-14 9,-30 14,-46 2,-6 1,-9 -4,-9 -4,0 -10,3 -17,9 -7,6 -14,15 -23,27 -8,12 -16,26 -22,43 -2,4 -3,9 -5,13 -2,4 -3,9 -5,13 -1,1 -3,2 -5,4 -2,1 -5,3 -7,4 -3,1 -5,2 -7,3 -2,1 -4,1 -5,0 3,-12 7,-24 11,-37 4,-13 8,-26 12,-40 4,-13 8,-26 12,-37 4,-12 7,-22 11,-31 0,-2 2,-2 4,-1 3,1 5,2 8,3 3,2 6,3 8,6 2,2 4,4 4,6 -2,3 -3,7 -5,12 -2,5 -4,10 -6,17 7,-9 13,-16 19,-22 6,-6 12,-10 17,-13 5,-3 9,-5 12,-6 3,-1 5,-2 6,-2 2,0 4,1 6,2 2,1 5,2 7,4 2,1 4,3 5,5 2,2 2,3 2,4 0,1 -1,5 -3,11 -2,6 -4,13 -7,21 11,-17 22,-30 32,-37 10,-8 17,-12 20,-11 2,0 4,1 6,2 2,1 5,2 7,4 2,1 4,3 6,4 2,2 2,3 2,4 0,2 -1,5 -4,11 -2,6 -5,13 -9,22 -3,8 -7,17 -11,27 -4,10 -7,19 -11,27 -3,8 -6,15 -7,21 -2,6 -2,9 -1,9 2,1 6,-2 11,-9 6,-7 12,-16 18,-26 7,-10 13,-20 20,-31 7,-10 12,-19 15,-25zm118 0c1,-1 2,-2 4,-3 2,0 3,-1 5,0 2,0 3,1 4,2 1,1 1,2 0,3 -9,18 -19,34 -30,48 -11,14 -23,26 -34,35 -12,9 -23,16 -33,19 -11,4 -20,5 -27,3 -10,-2 -17,-8 -22,-18 -5,-9 -7,-20 -7,-32 0,-12 2,-25 7,-38 4,-13 10,-24 18,-34 8,-10 17,-17 28,-22 11,-5 23,-5 35,-1 7,2 13,7 16,13 3,7 5,14 4,22 0,8 -3,17 -7,26 -4,9 -10,17 -18,25 -7,7 -16,14 -27,18 -10,5 -22,7 -35,7 2,9 6,15 13,16 6,2 13,1 22,-3 9,-3 18,-9 27,-17 10,-8 19,-17 29,-29 10,-12 19,-25 27,-40zm-60 -14c-6,-3 -12,-3 -18,0 -6,3 -12,9 -18,16 -5,7 -10,16 -14,25 -4,10 -7,19 -8,27 12,2 23,0 33,-6 9,-6 16,-13 22,-22 5,-8 8,-17 9,-25 1,-8 -1,-13 -5,-15z"/>
 </g>
</svg>
