<?xml version="1.0" encoding="UTF-8"?>
<!DOCTYPE svg PUBLIC "-//W3C//DTD SVG 1.1//EN" "http://www.w3.org/Graphics/SVG/1.1/DTD/svg11.dtd">
<!-- Creator: CorelDRAW 2017 -->
<svg xmlns="http://www.w3.org/2000/svg" xml:space="preserve" width="37mm" height="26mm" version="1.1" style="shape-rendering:geometricPrecision; text-rendering:geometricPrecision; image-rendering:optimizeQuality; fill-rule:evenodd; clip-rule:evenodd"
viewBox="0 0 3700 2600"
 xmlns:xlink="http://www.w3.org/1999/xlink">
 <defs>
  <style type="text/css">
   <![CDATA[
    .fil2 {fill:#35485D}
    .fil0 {fill:#36D1A5}
    .fil1 {fill:#41B883}
    .fil3 {fill:#57D4B1}
    .fil7 {fill:gray;fill-rule:nonzero}
    .fil6 {fill:#FEFEFE;fill-opacity:0.200000}
    .fil4 {fill:url(#id0)}
    .fil5 {fill:url(#id1)}
   ]]>
  </style>
  <linearGradient id="id0" gradientUnits="userSpaceOnUse" x1="981" y1="989" x2="1751" y2="989">
   <stop offset="0" style="stop-opacity:1; stop-color:#EB7F3F"/>
   <stop offset="1" style="stop-opacity:1; stop-color:#EB526E"/>
  </linearGradient>
  <linearGradient id="id1" gradientUnits="userSpaceOnUse" x1="2000" y1="989" x2="2770" y2="989">
   <stop offset="0" style="stop-opacity:1; stop-color:#EB7F3F"/>
   <stop offset="1" style="stop-opacity:1; stop-color:#EB536D"/>
  </linearGradient>
 </defs>
 <g id="Capa_x0020_1">
  <metadata id="CorelCorpID_0Corel-Layer"/>
  <g id="_1616496043600">
   <rect class="fil0" transform="matrix(0.0487478 -0.0193775 0.0193775 0.0487478 2598.73 305.435)" width="2001" height="9663"/>
   <rect class="fil0" transform="matrix(0.049932 0.016082 -0.016082 0.049932 1015.81 257.996)" width="2001" height="9663"/>
   <g>
    <g>
     <path class="fil1" d="M2499 134l-313 551c-55,93 -106,183 -159,273 -32,55 -130,237 -159,267l-631 -1092 -424 0c10,45 470,822 523,912l460 796c18,29 54,87 61,118l21 0c9,-40 233,-413 259,-458l658 -1136c23,-40 42,-73 66,-113 18,-29 54,-87 61,-118l-424 0z"/>
     <path class="fil2" d="M2499 134l-394 0c-30,67 -74,133 -111,201 -26,47 -106,168 -116,211l-21 0c-10,-41 -205,-361 -232,-412l-389 0 631 1092c30,-30 127,-212 159,-267 53,-91 105,-180 159,-273l313 -551z"/>
    </g>
    <path id="path2830" class="fil3" d="M2478 636c-167,1 -328,53 -492,73 -68,9 -139,11 -207,3 -91,-11 -179,-39 -270,-52 -81,-11 -164,-23 -246,-24 -143,-1 -281,43 -422,67 0,41 -8,93 13,121 22,29 58,56 68,96 22,95 54,187 95,276 20,43 57,73 99,94 101,50 219,57 330,42 157,-22 242,-139 307,-272 24,-54 27,-117 59,-166 19,-29 63,-17 95,-17 47,0 58,52 68,86 35,122 93,252 207,316 172,96 442,78 553,-95 44,-68 56,-150 77,-226 13,-47 25,-102 73,-128 19,-10 6,-52 9,-76 3,-26 9,-49 -29,-54 -66,-9 -129,-36 -196,-45 -64,-9 -126,-21 -191,-21l0 0zm-1104 43c47,0 95,3 141,13 275,57 280,169 167,401 -92,188 -283,236 -475,191 -89,-21 -149,-82 -178,-166 -30,-88 -53,-182 -48,-275 7,-124 149,-142 251,-153 47,-5 94,-9 142,-10l0 0zm1002 0c47,0 95,4 142,10 102,11 244,29 251,153 5,93 -18,187 -48,275 -29,84 -89,145 -178,166 -192,45 -383,-2 -475,-191 -113,-231 -107,-343 167,-401 46,-10 93,-13 141,-13l0 0z"/>
    <path id="path2832" class="fil4" d="M1233 689c94,-10 190,-16 282,3 275,57 280,169 167,401 -92,188 -283,236 -475,191 -89,-21 -149,-82 -178,-166 -30,-88 -53,-182 -48,-275 7,-124 149,-142 251,-153l0 0 0 0z"/>
    <path id="path2832-1" class="fil5" d="M2518 689c-94,-10 -190,-16 -282,3 -275,57 -280,169 -167,401 92,188 283,236 475,191 89,-21 149,-82 178,-166 30,-88 53,-182 48,-275 -7,-124 -149,-142 -251,-153l0 0 0 0z"/>
    <path class="fil6" d="M2178 708c-16,66 -34,132 -51,198l-45 173c-1,4 -2,8 -3,12 0,1 -1,5 -1,6l-2 4c0,0 0,1 -1,1l0 2c3,2 18,31 22,36 19,30 47,65 75,86 8,6 7,5 8,9l1 -1c1,-15 111,-432 124,-481 6,-22 14,-48 18,-70 -50,1 -98,13 -144,25z"/>
    <path class="fil6" d="M2278 1274c0,-10 126,-466 139,-516 3,-13 7,-25 10,-37 3,-10 6,-28 10,-36 -1,-6 3,-4 -8,-5 -2,0 -6,0 -8,0l-55 -1 -154 570c13,5 40,21 58,26 7,2 4,2 8,-1z"/>
    <path class="fil6" d="M1127 710c-16,68 -34,136 -51,204l-45 178c-1,4 -2,9 -3,13 0,1 -1,5 -1,6l-2 4c0,0 0,1 -1,1l0 2c3,2 18,31 22,37 19,31 47,67 75,89 8,6 7,5 8,9l1 -1c1,-16 111,-445 124,-496 6,-22 14,-50 18,-72 -50,1 -98,13 -144,26z"/>
    <path class="fil6" d="M1227 1293c0,-10 126,-480 139,-531 3,-13 7,-26 10,-38 3,-10 6,-29 10,-37 -1,-6 3,-4 -8,-5 -2,0 -6,0 -8,0l-55 -1 -154 587c13,5 40,22 58,27 7,2 4,2 8,-1z"/>
   </g>
  </g>
  <path class="fil7" d="M1202 2252c1,-3 3,-4 6,-5 3,-1 6,-1 8,0 3,1 5,2 6,4 2,2 2,4 1,7 -3,5 -8,13 -15,26 -7,13 -16,28 -26,44 -10,16 -21,33 -33,51 -12,18 -24,34 -35,48 -11,15 -22,27 -32,36 -10,9 -18,14 -25,14 -12,0 -18,-13 -18,-39 -14,15 -30,26 -47,33 -17,7 -35,8 -54,2 -23,-7 -40,-21 -50,-40 -10,-20 -14,-42 -14,-67 1,-25 6,-51 16,-77 10,-26 23,-49 39,-69 16,-20 34,-35 54,-44 20,-10 41,-10 62,-2 16,7 29,18 38,32 1,-4 2,-8 3,-12 1,-4 2,-8 3,-12 1,-3 3,-4 8,-3 5,1 10,3 16,6 6,3 11,7 16,12 5,5 7,8 7,12 0,3 -2,10 -6,22 -4,12 -9,27 -15,44 -6,17 -12,35 -20,54 -7,19 -13,37 -19,53 -5,16 -9,30 -12,41 -3,11 -3,17 -1,18 4,2 12,-4 23,-19 12,-15 25,-33 39,-54 14,-21 28,-43 41,-64 14,-22 24,-39 32,-51zm-257 183c13,7 26,7 39,1 13,-7 24,-17 35,-31 10,-14 19,-30 27,-49 7,-19 12,-37 15,-56 2,-18 1,-35 -2,-49 -4,-15 -12,-25 -23,-31 -12,-6 -24,-6 -37,1 -13,7 -24,17 -35,30 -11,14 -20,30 -28,48 -8,19 -13,37 -16,54 -3,18 -2,34 2,49 4,15 12,26 25,32zm635 -183c1,-3 3,-4 6,-5 3,-1 6,-1 8,0 3,1 5,2 6,4 2,2 2,4 1,7 -13,30 -26,54 -39,72 -13,18 -25,31 -37,40 -12,9 -24,15 -35,17 -11,2 -21,2 -30,-1 -11,21 -22,37 -33,49 -11,12 -22,21 -33,28 -11,7 -21,11 -30,12 -9,2 -17,2 -24,2 -22,0 -39,-9 -50,-28 -11,12 -22,20 -32,24 -10,4 -20,5 -29,4 -18,0 -33,-7 -44,-20 -11,-13 -18,-33 -20,-59 -2,-26 0,-58 8,-97 7,-38 21,-82 39,-132 1,-3 4,-4 9,-3 5,1 11,4 17,7 6,4 11,8 17,12 5,5 8,8 8,12 -65,151 -76,232 -32,242 16,3 32,-9 46,-38 -1,-17 -1,-36 1,-58 2,-22 7,-46 14,-74 3,-1 8,0 14,3 6,3 13,7 20,12 7,5 13,11 18,17 5,6 8,11 10,16 -7,20 -13,38 -19,53 -6,15 -12,28 -18,40 3,17 11,27 26,29 11,3 24,-2 39,-15 15,-13 29,-34 42,-63 -11,-12 -18,-27 -21,-45 -3,-18 -3,-35 2,-53 5,-18 13,-35 25,-50 12,-16 28,-27 47,-35 3,-1 7,0 12,2 5,2 10,4 15,7 5,3 9,6 13,10 4,4 6,7 6,10 -7,33 -15,62 -23,88 -8,25 -17,47 -26,66 10,2 20,0 30,-5 9,-6 19,-13 27,-23 9,-10 17,-22 25,-37 8,-14 16,-29 23,-45zm-139 75c4,-11 8,-23 12,-37 4,-13 7,-27 11,-42 -12,11 -20,24 -23,39 -3,15 -3,28 0,40zm382 -74c2,-3 5,-4 8,-5 3,-1 7,-1 10,-1 4,0 6,1 8,3 2,2 2,4 1,6 -18,38 -39,71 -62,100 -23,29 -47,53 -71,72 -24,19 -47,32 -69,40 -22,8 -41,10 -57,6 -21,-5 -36,-18 -45,-37 -9,-20 -14,-42 -14,-67 0,-25 5,-52 14,-79 9,-27 22,-51 38,-71 16,-20 35,-36 58,-46 22,-10 47,-11 74,-3 16,5 27,14 34,27 7,14 10,29 9,47 -1,18 -6,36 -15,55 -9,19 -21,36 -37,52 -16,16 -34,28 -56,38 -22,10 -46,14 -74,14 3,19 12,30 26,34 12,3 28,1 46,-6 18,-7 37,-19 57,-35 20,-16 40,-36 60,-60 20,-24 39,-52 56,-84zm-125 -29c-12,-7 -25,-6 -38,0 -13,7 -25,18 -37,33 -11,15 -21,32 -30,52 -8,20 -14,39 -17,57 26,4 49,0 68,-13 19,-13 34,-28 45,-45 11,-18 17,-35 19,-52 2,-17 -2,-28 -10,-32zm339 27c1,-3 3,-4 6,-5 3,-1 6,-1 8,0 3,1 5,2 6,3 2,2 2,4 1,6 -11,25 -25,43 -41,56 -16,13 -33,22 -52,29 5,9 9,19 11,29 2,10 1,21 -2,32 -5,19 -14,34 -27,46 -13,12 -27,20 -43,25 -16,5 -31,7 -47,5 -16,-1 -30,-5 -41,-12 -12,-7 -20,-16 -26,-28 -6,-12 -5,-26 0,-42 4,-11 10,-20 17,-27 7,-7 16,-13 25,-18 9,-5 20,-8 31,-11 11,-3 23,-5 36,-8 -12,-12 -26,-23 -41,-35 -15,-12 -28,-24 -39,-36 -11,-12 -18,-25 -20,-39 -3,-13 1,-27 13,-42 7,-9 15,-15 23,-19 8,-3 16,-4 22,-2 7,2 11,7 15,14 3,7 3,18 -1,31 -2,7 -5,14 -8,20 -3,6 -7,12 -10,18 14,11 30,23 48,36 19,13 35,26 48,41 17,-5 33,-13 48,-23 15,-10 28,-25 38,-45zm-206 -51c-5,7 -3,16 6,25 1,-3 2,-5 3,-7 1,-2 2,-4 2,-5 5,-10 6,-17 2,-21 -4,-4 -8,-1 -14,8zm99 197c4,-14 0,-29 -12,-45 -23,5 -43,11 -58,16 -15,6 -26,17 -33,36 -3,11 -1,20 7,28 8,7 18,12 30,13 12,1 25,-2 38,-9 13,-7 22,-20 28,-38zm354 -145c1,-3 2,-4 5,-5 3,-1 6,-1 9,0 3,1 5,2 7,4 2,2 2,4 1,7 -10,24 -21,44 -31,60 -10,16 -20,29 -30,39 -10,10 -19,17 -29,22 -9,5 -18,7 -27,8 -7,15 -16,29 -25,41 -10,12 -20,23 -32,31 -12,8 -24,14 -37,17 -13,3 -27,2 -41,-2 -23,-7 -40,-21 -50,-40 -10,-20 -14,-42 -14,-67 1,-25 6,-51 16,-77 10,-26 23,-49 39,-69 16,-20 34,-35 54,-44 20,-10 41,-10 62,-2 15,6 27,15 35,28 8,13 14,28 17,45 3,17 3,36 1,56 -3,20 -7,39 -14,58 8,-3 16,-7 23,-15 8,-7 15,-16 22,-25 7,-10 13,-20 20,-32 7,-12 12,-24 18,-36zm-108 26c-12,12 -19,26 -20,40 -2,14 0,25 7,34 5,-12 8,-25 11,-38 3,-13 4,-25 3,-36zm-116 157c8,5 17,6 25,5 8,-1 16,-5 24,-10 8,-6 15,-13 22,-22 7,-9 14,-19 20,-30 -9,-6 -16,-14 -21,-25 -5,-11 -7,-23 -7,-37 0,-14 3,-28 9,-43 6,-15 15,-30 26,-45 -3,-3 -6,-5 -9,-6 -12,-6 -24,-6 -37,1 -13,7 -24,17 -35,30 -11,14 -20,30 -28,48 -8,19 -13,37 -16,54 -3,18 -2,34 2,49 4,15 12,26 25,32zm602 -183c1,-3 3,-4 6,-5 3,-1 6,-1 8,0 3,1 5,2 6,4 2,2 2,4 1,6 -3,5 -8,13 -15,26 -7,13 -16,28 -26,44 -10,16 -21,33 -33,51 -12,18 -24,34 -35,48 -11,15 -22,27 -32,36 -10,9 -18,14 -25,14 -10,0 -17,-3 -22,-10 -5,-7 -7,-19 -5,-36 1,-17 6,-40 14,-68 8,-29 20,-65 36,-108 6,-16 4,-23 -4,-22 -9,1 -21,10 -37,27 -16,17 -33,42 -51,74 -19,33 -35,72 -48,120 -1,1 -4,3 -9,6 -5,3 -9,6 -15,8 -5,3 -10,5 -16,7 -5,2 -9,3 -11,3 1,-5 2,-12 5,-21 3,-9 5,-20 8,-31 3,-12 6,-24 10,-37 4,-13 7,-26 11,-39 8,-30 18,-62 28,-97 4,-12 1,-18 -7,-18 -9,0 -20,7 -35,20 -14,13 -30,31 -47,56 -17,24 -33,54 -46,90 -3,9 -7,18 -10,27 -3,9 -7,18 -10,27 -2,2 -5,4 -10,7 -5,3 -10,6 -16,8 -6,2 -11,4 -16,5 -5,1 -8,2 -10,1 7,-24 14,-50 22,-78 8,-28 17,-55 26,-82 9,-27 17,-53 25,-78 8,-24 15,-46 22,-65 1,-3 4,-4 9,-3 6,1 11,4 18,7 6,3 12,7 17,12 5,5 7,8 7,12 -3,7 -7,15 -10,25 -4,10 -8,22 -13,35 14,-18 27,-33 40,-45 13,-12 24,-21 35,-27 10,-7 19,-11 26,-13 7,-2 11,-3 13,-3 3,0 7,1 12,3 5,2 9,5 14,8 4,3 8,6 11,10 3,4 5,7 5,9 0,3 -2,10 -6,22 -4,12 -9,27 -15,44 23,-36 46,-62 66,-78 21,-16 35,-24 42,-23 3,0 7,1 12,3 5,2 10,5 14,8 5,3 8,6 12,9 3,3 5,6 5,9 0,3 -2,11 -7,24 -5,13 -11,28 -18,45 -7,18 -15,36 -23,57 -8,20 -15,39 -22,56 -7,17 -12,31 -15,43 -4,12 -4,18 -2,19 4,2 12,-4 23,-19 12,-15 25,-33 39,-54 14,-21 28,-43 41,-64 14,-22 24,-39 32,-51zm247 1c2,-3 5,-4 8,-5 3,-1 7,-1 10,-1 4,0 6,1 8,3 2,2 2,4 1,6 -18,38 -39,71 -62,100 -23,29 -47,53 -71,72 -24,19 -47,32 -69,40 -22,8 -41,10 -57,6 -21,-5 -36,-18 -45,-37 -9,-20 -14,-42 -14,-67 0,-25 5,-52 14,-79 9,-27 22,-51 38,-71 16,-20 35,-36 58,-46 22,-10 47,-11 74,-3 16,5 27,14 34,27 7,14 10,29 9,47 -1,18 -6,36 -15,55 -9,19 -21,36 -37,52 -16,16 -34,28 -56,38 -22,10 -46,14 -74,14 3,19 12,30 26,34 12,3 28,1 46,-6 18,-7 37,-19 57,-35 20,-16 40,-36 60,-60 20,-24 39,-52 56,-84zm-125 -29c-12,-7 -25,-6 -38,0 -13,7 -25,18 -37,33 -11,15 -21,32 -30,52 -8,20 -14,39 -17,57 26,4 49,0 68,-13 19,-13 34,-28 45,-45 11,-18 17,-35 19,-52 2,-17 -2,-28 -10,-32z"/>
 </g>
</svg>
